<svg width="28" height="29" viewBox="0 0 28 29" fill="none" xmlns="http://www.w3.org/2000/svg">
<path d="M0.557699 25.4083C0.383324 25.509 0.333865 25.6749 0.330933 25.7452V25.835C0.330933 25.9067 0.608097 26.1694 0.74668 26.2917C2.69824 27.9318 4.30087 28.1081 5.63879 28.1081C6.9767 28.1081 8.4981 27.5576 9.91247 25.9292C11.044 24.6264 10.7907 22.6166 10.5226 21.7745C10.8385 21.7745 11.053 21.7209 11.1208 21.6941C11.5605 21.5109 12.5379 21.088 12.9296 20.8618C13.3214 20.6356 13.3123 20.2371 13.2588 20.0661C14.688 19.6832 16.3585 18.1473 17.015 17.4272L26.5947 5.91548C27.3293 5.1004 28.4221 3.0939 26.9167 1.58851C25.4113 0.0831294 23.7671 0.666096 23.1331 1.14575L10.8658 11.284C9.84992 12.1237 8.70184 14.1305 8.25479 15.0289C7.81939 14.9304 7.52913 15.2125 7.43843 15.3658L6.68038 16.9661C6.63719 17.0201 6.54432 17.2136 6.51841 17.5557C6.49249 17.8978 6.74517 18.2641 6.87475 18.4045C6.49638 18.2749 5.83595 18.2339 5.55303 18.2295C3.18948 18.2295 2.0414 20.048 1.7628 20.9572C1.70017 21.1019 1.57491 21.5935 1.57491 22.402C1.57491 23.4128 1.78224 23.8922 1.69153 24.268C1.60082 24.6438 0.775667 25.2825 0.557699 25.4083Z" fill="#C27AFF"/>
<circle cx="2.57839" cy="14.365" r="2.24758" fill="#C27AFF"/>
<circle cx="22.2838" cy="23.0912" r="1.97886" fill="#C27AFF"/>
<circle cx="9.48156" cy="4.43505" r="3.02086" fill="#C27AFF"/>
</svg>
