<svg width="23" height="22" viewBox="0 0 23 22" fill="none" xmlns="http://www.w3.org/2000/svg">
<path d="M14.5279 6.05079C12.3514 5.31893 10.0148 5.74585 9.1185 6.05079C7.54556 4.96254 6.42313 4.83938 6.05853 4.91383C5.5359 6.1867 5.78457 7.36193 5.97423 7.79043L5.97206 7.79284C5.27706 8.56155 4.44703 9.47961 5.07859 12.5953C5.58437 15.0905 8.42222 15.8812 9.77792 15.9646C9.2936 16.2734 9.14729 17.0367 9.13468 17.3797C8.92531 17.4731 8.34917 17.6582 7.71954 17.6522C6.93252 17.6446 6.56927 17.3343 5.89576 16.4035C5.35695 15.6589 4.61179 15.4021 4.30657 15.3668C3.93071 15.3466 3.36213 15.4379 4.09468 15.9646C4.82722 16.4913 5.20206 17.1275 5.29792 17.3797C5.34585 17.6345 5.64451 18.2788 6.45576 18.8176C7.267 19.3564 8.54669 19.1593 9.08512 18.9934C9.09056 19.3883 9.09817 20.3238 9.08512 20.9065C9.07208 21.4891 8.49602 21.4653 8.20962 21.3805C4.3244 20.1664 2.22639 16.7968 1.66303 15.2637C0.885987 13.6708 -0.0153812 9.47475 2.59548 5.43412C5.20635 1.3935 9.58888 0.461051 11.4538 0.499906C18.4005 0.499906 21.5877 5.62839 22.313 8.19264C22.7209 9.3841 23.1599 12.5829 21.6525 15.8465C19.7681 19.926 15.5604 21.3805 15.0145 21.3805C14.5778 21.3805 14.4799 21.0109 14.4855 20.826V17.5395C14.4855 16.762 14.0179 16.1534 13.7841 15.9463C17.1508 15.5556 18.3933 14.0225 18.7339 11.5476C19.0065 9.56766 18.1055 8.19698 17.6209 7.75913C18.0698 6.46625 17.7347 5.31255 17.5111 4.89732C16.2701 4.85277 15.0052 5.64774 14.5279 6.05079Z" fill="white"/>
</svg>
