<?xml version="1.0" encoding="UTF-8"?>
<svg id="_Слой_1" data-name="Слой 1" xmlns="http://www.w3.org/2000/svg" xmlns:xlink="http://www.w3.org/1999/xlink" viewBox="0 0 647.37 647.37">
  <defs>
    <style>
      .cls-1 {
        fill: url(#_Безымянный_градиент_7);
      }

      .cls-2 {
        fill: #008ffc;
      }

      .cls-3 {
        fill: #ff642c;
      }

      .cls-4 {
        fill: #0c0c0c;
      }

      .cls-5 {
        fill: url(#_Безымянный_градиент_26);
      }

      .cls-6 {
        fill: url(#_Безымянный_градиент_6);
      }

      .cls-7 {
        fill: url(#_Безымянный_градиент_25);
      }

      .cls-8 {
        fill: url(#_Безымянный_градиент_21);
      }

      .cls-9 {
        fill: url(#_Безымянный_градиент_27);
      }

      .cls-10 {
        fill: url(#_Безымянный_градиент_16);
      }
    </style>
    <linearGradient id="_Безымянный_градиент_16" data-name="Безымянный градиент 16" x1="497.65" y1="159.15" x2="406.51" y2="523.94" gradientUnits="userSpaceOnUse">
      <stop offset="0" stop-color="#ff004f"/>
      <stop offset="1" stop-color="#ff4f1d"/>
    </linearGradient>
    <linearGradient id="_Безымянный_градиент_6" data-name="Безымянный градиент 6" x1="160.32" y1="130.23" x2="281.95" y2="537.23" gradientUnits="userSpaceOnUse">
      <stop offset="0" stop-color="#ff004f"/>
      <stop offset="1" stop-color="#ff4f1d"/>
    </linearGradient>
    <linearGradient id="_Безымянный_градиент_21" data-name="Безымянный градиент 21" x1="422.02" y1="147.78" x2="373.02" y2="515.64" gradientUnits="userSpaceOnUse">
      <stop offset="0" stop-color="#82fffc"/>
      <stop offset="1" stop-color="#0268d4"/>
    </linearGradient>
    <linearGradient id="_Безымянный_градиент_7" data-name="Безымянный градиент 7" x1="101.41" y1="185.23" x2="213.39" y2="559.97" gradientUnits="userSpaceOnUse">
      <stop offset="0" stop-color="#82fffc"/>
      <stop offset="1" stop-color="#0066d4"/>
    </linearGradient>
    <linearGradient id="_Безымянный_градиент_25" data-name="Безымянный градиент 25" x1="171.48" y1="187.09" x2="251.47" y2="476.44" gradientUnits="userSpaceOnUse">
      <stop offset="0" stop-color="#fff"/>
      <stop offset="1" stop-color="#c9ccd1"/>
    </linearGradient>
    <linearGradient id="_Безымянный_градиент_26" data-name="Безымянный градиент 26" x1="475.67" y1="177.29" x2="398.66" y2="500.74" gradientUnits="userSpaceOnUse">
      <stop offset="0" stop-color="#fff"/>
      <stop offset="1" stop-color="#c9ccd1"/>
    </linearGradient>
    <linearGradient id="_Безымянный_градиент_27" data-name="Безымянный градиент 27" x1="327.56" y1="459.01" x2="327.16" y2="498.39" gradientUnits="userSpaceOnUse">
      <stop offset=".2" stop-color="#fff"/>
      <stop offset="1" stop-color="#c9ccd1"/>
    </linearGradient>
  </defs>
  <circle class="cls-4" cx="323.69" cy="323.69" r="323.69"/>
  <polygon class="cls-10" points="422.33 112.14 426.99 101.9 580.04 177.82 494.2 334.5 523.35 318.46 487.72 382.99 500.07 382.99 499.06 385.5 486.51 385.5 456.14 439.21 455.94 449.64 448.04 462 447.44 454.66 423.14 497.16 427.8 497.16 422.33 506.24 418.49 506.24 392.17 550.1 405.12 373.52 422.33 112.14"/>
  <polygon class="cls-6" points="92.19 171.06 239.98 95.71 290.66 228.11 311.71 228.11 318.73 248.59 297.41 248.59 302.8 264.18 258.81 325.74 295.25 325.74 297.54 342.61 260.42 342.61 271.52 453.43 277.24 453.63 279.26 475.93 269.94 477.84 274.53 551.66 271.05 547.76 268.93 514.55 264.34 514.55 264.34 533.61 253.54 514.94 258.13 514.68 203.33 416.8 190.38 416.67 181.07 399.67 193.89 399.41 140.95 313.53 177.56 335.4 161.9 305.39 149.89 305.39 139.9 286.33 152.72 286.33 117.77 219.74 68.37 219.74 58.38 200.81 107.91 200.55 92.19 171.06"/>
  <polygon class="cls-8" points="421.12 108.85 411.4 104.21 390.62 167.07 386.03 167.07 376.04 198.75 380.36 198.75 356.87 265.46 373.61 288.65 353.1 288.65 366.59 307.19 384.95 306.29 399.79 326 392.17 395.59 381.44 395.59 376.85 409.71 392.17 409.71 382.25 548.04 390.08 534.38 454.59 279.89 421.12 108.85"/>
  <polygon class="cls-1" points="270.43 538.14 270.43 554.17 252.56 524.79 252.56 533.87 241.6 514.16 246.86 514.94 190.38 416.67 176.81 416.72 168.25 399.96 177.64 399.6 129.36 313.7 152.12 328.31 167.5 338.75 149.89 305.39 143.21 305.39 136.32 305.39 125.8 286.2 137.53 286.31 102.89 223.05 54.71 223.05 42.39 200.42 92.6 200.42 79.64 181.88 95.83 177.63 163.05 246.4 258.2 511.07 270.43 538.14"/>
  <polygon class="cls-7" points="87.47 176.6 238.63 102.41 283.98 228.11 305.03 228.11 312.05 248.59 290.72 248.59 296.12 264.18 252.12 325.74 288.57 325.74 290.86 342.61 253.74 342.61 265.08 455.82 273.45 455.82 274.53 475.53 266.43 475.53 271.15 549.45 261.84 534.51 262.25 514.55 257.66 514.55 257.66 533.61 246.86 514.94 251.45 514.68 196.65 416.8 183.7 416.67 174.38 399.67 187.21 399.41 141.99 318.14 170.88 335.4 155.22 305.39 143.21 305.39 133.22 286.33 146.04 286.33 111.09 219.74 61.69 219.74 51.7 200.81 101.23 200.55 87.47 176.6"/>
  <polygon class="cls-5" points="418.28 104.21 569.31 176.08 486.31 336.82 515.86 318.66 479.42 382.02 493.8 382.02 490.76 385.5 478.61 385.5 447.84 440.49 448.25 448.87 440.96 462.52 440.28 454.53 416.39 497.42 420.04 497.42 415.04 506.05 411.8 506.05 386.97 550.1 396.82 409.45 386.43 409.58 388.86 395.54 398.71 395.67 405.46 326.51 391.43 306.29 375.63 306.29 362.81 288.65 379.14 288.65 361.33 265.46 385.76 197.85 381.57 197.85 391.97 169 396.01 169.13 418.28 104.21"/>
  <polyline class="cls-3" points="332.25 498.83 319.1 485.52 310.42 463.43 319.1 457.37 345.41 457.37 354.09 463.43 345.41 485.52 332.25 498.83"/>
  <polyline class="cls-2" points="323.69 498.83 310.53 485.52 301.86 463.43 310.53 457.37 336.84 457.37 345.52 463.43 336.84 485.52 323.69 498.83"/>
  <polyline class="cls-9" points="327.52 498.83 314.36 485.52 305.69 463.43 314.36 457.37 340.68 457.37 349.35 463.43 340.68 485.52 327.52 498.83"/>
</svg>